<svg xmlns="http://www.w3.org/2000/svg" viewBox="0 0 256 256" role="img" aria-label="Cursor Capacitor Plugin logo">
  <defs>
    <linearGradient id="g" x1="0" y1="0" x2="1" y2="1">
      <stop offset="0%" stop-color="#0f766e"/>
      <stop offset="100%" stop-color="#14532d"/>
    </linearGradient>
  </defs>
  <rect width="256" height="256" rx="56" fill="url(#g)"/>
  <path d="M56 132c0-40 32-72 72-72 29 0 54 17 66 41h-38c-8-9-17-13-28-13-24 0-44 20-44 44s20 44 44 44c11 0 20-4 28-13h38c-12 24-37 41-66 41-40 0-72-32-72-72z" fill="#ecfeff"/>
  <path d="M138 116h64v24h-64z" fill="#86efac"/>
</svg>
